<?xml version="1.0" standalone="no"?>
<!DOCTYPE svg PUBLIC "-//W3C//DTD SVG 20010904//EN"
 "http://www.w3.org/TR/2001/REC-SVG-20010904/DTD/svg10.dtd">
<svg version="1.0" xmlns="http://www.w3.org/2000/svg"
 width="540.000000pt" height="540.000000pt" viewBox="0 0 540.000000 540.000000"
 preserveAspectRatio="xMidYMid meet">

<g transform="translate(0.000000,540.000000) scale(0.100000,-0.100000)"
fill="#000000" stroke="none">
<path d="M2439 5396 c-2 -2 -55 -11 -117 -20 -514 -75 -1012 -315 -1419 -684
-154 -140 -341 -370 -457 -563 -112 -185 -181 -332 -247 -528 -236 -691 -180
-1456 152 -2091 282 -537 757 -978 1302 -1210 296 -126 530 -182 886 -215 161
-15 189 -15 350 0 465 42 836 158 1190 371 624 374 1057 962 1231 1669 67 270
99 659 70 853 -5 37 -17 117 -26 177 -90 620 -431 1225 -917 1628 -384 319
-794 504 -1309 592 -132 22 -175 25 -416 25 -148 0 -271 -2 -273 -4z m619
-356 c835 -123 1535 -674 1857 -1458 101 -248 154 -502 162 -787 9 -306 -24
-542 -114 -816 -106 -326 -295 -636 -542 -892 -318 -330 -744 -568 -1196 -671
-450 -103 -975 -62 -1401 109 -806 323 -1347 1002 -1481 1856 -25 159 -24 509
1 667 40 259 99 446 211 679 107 222 225 396 383 566 426 458 961 715 1602
771 103 9 382 -4 518 -24z"/>
<path d="M2488 4753 c-30 -3 -38 -8 -38 -24 0 -18 5 -20 43 -17 l42 3 6 -60
c4 -33 7 -86 8 -118 1 -55 2 -58 24 -55 22 3 22 6 20 121 l-2 117 40 0 c32 0
39 3 39 20 0 18 -6 20 -72 18 -40 -1 -90 -3 -110 -5z"/>
<path d="M2787 4723 c-3 -21 -9 -78 -13 -128 -3 -49 -7 -94 -8 -100 -1 -10 4
-11 123 -16 61 -3 85 -1 88 8 6 16 -6 20 -89 28 -66 6 -68 7 -68 35 0 49 8 59
46 54 19 -2 50 -6 69 -8 29 -4 35 -2 35 14 0 21 -12 25 -88 34 -54 5 -56 7
-47 45 5 26 10 30 33 26 101 -15 120 -15 125 5 6 24 -3 26 -119 35 l-81 6 -6
-38z"/>
<path d="M3149 4677 c-42 -28 -61 -67 -67 -132 -4 -44 0 -55 22 -82 49 -59
130 -67 177 -17 22 24 22 24 3 38 -17 13 -21 12 -40 -5 -27 -25 -76 -25 -99 1
-35 39 -4 147 49 172 32 14 80 -9 84 -40 3 -19 9 -23 30 -20 21 2 26 8 24 23
-5 28 -32 55 -69 71 -46 20 -75 17 -114 -9z"/>
<path d="M2027 4660 c-33 -10 -61 -21 -64 -23 -8 -9 71 -249 84 -254 7 -3 20
-3 28 0 12 5 12 12 -1 52 -30 86 7 99 92 34 42 -32 59 -40 79 -35 14 4 25 10
25 14 0 4 -25 25 -55 47 -30 22 -55 41 -55 42 0 2 9 12 20 23 26 26 26 70 0
98 -26 27 -71 28 -153 2z m113 -35 c26 -31 -2 -63 -71 -80 -24 -6 -28 -3 -39
30 -7 20 -10 38 -8 39 4 4 79 24 94 25 6 1 17 -6 24 -14z"/>
<path d="M3484 4599 c-10 -17 -114 -230 -114 -234 0 -2 9 -9 20 -15 17 -9 22
-5 45 40 14 27 32 50 41 50 16 0 94 -37 94 -46 0 -2 -11 -27 -25 -54 l-25 -49
21 -12 c12 -6 25 -7 29 -2 4 4 31 59 61 121 44 94 50 115 38 123 -23 14 -27
11 -50 -33 -12 -24 -23 -45 -25 -47 -6 -7 -104 41 -104 51 0 5 9 26 20 48 24
48 24 47 1 60 -14 7 -22 7 -27 -1z"/>
<path d="M1713 4531 c-23 -11 -49 -31 -59 -45 -52 -81 25 -226 121 -226 76 0
151 74 142 142 -10 75 -78 148 -137 148 -14 0 -44 -9 -67 -19z m112 -55 c13
-13 29 -42 36 -65 11 -38 10 -44 -8 -69 -36 -48 -109 -42 -142 12 -27 43 -27
100 -1 126 28 28 84 27 115 -4z"/>
<path d="M3742 4341 c-84 -115 -88 -124 -68 -140 12 -10 23 -1 66 58 28 39 54
71 57 71 3 0 2 -46 -2 -103 -7 -95 -6 -103 13 -120 20 -19 21 -18 93 80 39 54
76 104 82 111 9 12 -6 42 -23 42 -4 0 -28 -31 -55 -70 -27 -38 -52 -70 -57
-70 -8 0 -3 127 8 179 5 21 -19 61 -36 61 -4 0 -39 -44 -78 -99z"/>
<path d="M1410 4339 c-36 -28 -66 -52 -68 -53 -1 -2 26 -39 61 -83 34 -44 72
-92 83 -108 18 -24 23 -26 43 -16 l22 12 -36 48 c-19 27 -35 51 -35 53 0 3 21
19 46 38 41 29 44 34 31 48 -14 13 -20 11 -55 -17 -22 -17 -44 -31 -50 -31 -9
0 -42 42 -42 54 0 2 23 21 51 41 48 34 59 58 28 62 -8 1 -43 -20 -79 -48z"/>
<path d="M2530 4269 c-130 -15 -154 -21 -169 -38 -9 -9 -36 -29 -61 -43 -143
-83 -262 -235 -312 -396 -11 -37 -25 -73 -30 -80 -6 -7 -11 -64 -11 -130 0
-94 5 -129 22 -177 11 -32 21 -67 21 -76 0 -22 62 -142 98 -188 50 -66 137
-148 182 -172 25 -13 47 -26 50 -29 16 -16 98 -54 167 -77 58 -20 105 -27 184
-31 140 -6 223 17 348 93 50 30 97 55 106 55 22 0 117 88 154 144 71 104 93
139 101 163 6 16 15 37 20 48 22 47 40 149 40 228 0 81 -22 209 -39 232 -5 5
-11 23 -15 39 -4 16 -23 53 -42 81 -19 29 -34 56 -34 62 0 5 -27 39 -60 75
-61 67 -168 146 -250 185 -77 37 -303 52 -470 32z m-340 -514 c3 -27 4 -119 2
-202 l-3 -153 -35 0 c-20 0 -34 5 -35 13 -3 41 4 383 8 390 3 4 17 7 31 5 24
-3 27 -8 32 -53z m265 45 c50 -11 95 -59 95 -100 0 -19 -6 -33 -16 -37 -23 -8
-64 14 -64 35 0 19 -49 42 -86 42 -25 -1 -54 -23 -54 -42 0 -23 20 -35 70 -43
74 -12 176 -72 157 -92 -4 -3 -2 -12 4 -19 7 -9 7 -25 -1 -53 -19 -70 -54 -91
-155 -91 -101 0 -147 26 -166 96 -13 44 -6 54 36 54 24 0 35 -5 39 -18 18 -57
91 -81 142 -47 51 33 18 71 -77 89 -51 10 -109 37 -109 51 0 7 -6 18 -14 24
-17 15 -11 74 11 109 28 46 102 62 188 42z m407 0 c37 0 38 -1 38 -35 l0 -35
-60 0 -60 0 0 -165 0 -165 -24 0 c-56 0 -56 -1 -56 171 l0 159 -53 0 c-56 0
-77 12 -77 42 0 30 38 39 149 33 57 -3 121 -5 143 -5z m369 -7 c10 -10 10 -18
1 -38 -11 -24 -14 -25 -117 -25 l-105 0 0 -40 0 -40 83 0 c99 0 124 -6 132
-32 13 -40 -11 -50 -114 -47 l-96 3 -3 -52 -3 -52 108 0 c59 0 114 -4 121 -9
8 -4 12 -19 10 -32 -3 -24 -3 -24 -154 -27 -150 -2 -152 -2 -158 20 -10 35 -4
357 7 375 8 13 274 10 288 -4z"/>
<path d="M3996 4124 c-71 -77 -88 -99 -80 -112 6 -9 15 -17 20 -18 5 -1 51 43
102 98 74 80 90 103 81 114 -6 8 -17 14 -23 14 -6 0 -51 -44 -100 -96z"/>
<path d="M2120 4175 c-626 -242 -1030 -818 -1030 -1469 0 -111 21 -311 35
-324 4 -4 12 27 35 131 7 31 17 57 21 57 4 0 10 14 14 31 4 17 19 45 35 62 15
18 31 43 35 56 11 37 154 172 211 201 27 14 53 31 57 38 4 6 13 12 18 12 6 0
25 6 42 14 73 32 119 46 169 51 29 3 73 7 98 10 25 3 86 1 135 -3 50 -5 92 -8
93 -6 2 1 -16 31 -40 66 -58 83 -102 175 -130 268 -18 62 -22 99 -21 211 0
103 4 141 15 160 9 13 19 43 22 67 7 47 39 116 91 197 40 62 143 175 161 175
13 0 29 18 22 25 -1 2 -41 -11 -88 -30z"/>
<path d="M3200 4183 c69 -45 164 -166 212 -268 16 -36 33 -65 37 -65 18 0 36
-144 36 -285 0 -147 -7 -194 -41 -270 -7 -16 -24 -56 -38 -88 -14 -32 -37 -72
-51 -89 -14 -16 -25 -36 -25 -43 0 -8 -10 -21 -21 -29 -20 -13 -7 -15 132 -14
195 1 274 -19 424 -106 92 -54 98 -58 185 -147 65 -66 150 -191 150 -221 0 -6
6 -24 14 -41 7 -18 19 -58 26 -90 6 -32 13 -57 16 -55 13 14 34 216 34 331 0
153 -10 235 -45 377 -111 442 -414 819 -822 1024 -139 69 -286 122 -223 79z"/>
<path d="M1117 4072 c-15 -16 -15 -22 5 -75 11 -32 18 -60 15 -63 -3 -4 -32
-2 -64 4 -54 10 -59 9 -75 -11 -9 -12 -16 -23 -15 -24 2 -1 25 -4 52 -8 28 -3
68 -8 90 -10 25 -4 56 -18 84 -40 51 -41 52 -41 68 -16 10 16 6 23 -32 51 -39
29 -48 43 -71 114 -15 45 -30 84 -33 89 -4 4 -15 -1 -24 -11z"/>
<path d="M4154 4050 c-91 -41 -128 -129 -84 -198 24 -40 77 -64 119 -56 27 6
29 8 19 30 -9 18 -16 22 -39 17 -40 -8 -84 37 -74 75 12 48 77 102 125 102 33
0 63 -37 58 -75 -3 -24 1 -36 15 -45 24 -15 37 0 37 43 0 38 -26 80 -63 102
-42 25 -68 26 -113 5z"/>
<path d="M870 3735 c-48 -79 -57 -115 -30 -115 6 0 20 16 31 35 l21 35 32 -19
c17 -11 63 -37 101 -59 63 -36 71 -39 83 -24 6 9 12 18 12 21 0 3 -38 27 -83
54 -128 73 -123 67 -98 109 19 32 20 36 5 42 -8 3 -17 6 -19 6 -2 0 -27 -38
-55 -85z"/>
<path d="M4415 3739 c-27 -4 -72 -11 -100 -15 -27 -3 -67 -9 -88 -12 -37 -7
-37 -7 -21 -30 14 -20 22 -23 50 -18 31 6 34 4 58 -37 30 -51 32 -64 9 -89
-13 -15 -14 -23 -4 -44 11 -26 12 -25 101 86 50 62 90 117 90 122 0 18 -21 48
-33 47 -7 -1 -34 -5 -62 -10z m29 -47 c2 -4 -12 -25 -31 -46 l-36 -39 -18 24
c-25 32 -24 48 4 53 47 11 62 14 69 15 4 0 9 -2 12 -7z"/>
<path d="M726 3438 c-20 -50 -35 -92 -34 -93 17 -14 253 -94 258 -88 5 4 24
47 43 95 33 83 33 88 15 94 -24 7 -20 12 -48 -64 -12 -34 -26 -65 -31 -68 -4
-2 -24 2 -43 10 l-35 15 25 61 c13 33 22 65 19 70 -11 18 -34 10 -41 -12 -4
-13 -15 -42 -25 -65 -17 -41 -18 -42 -48 -30 -17 6 -31 14 -31 17 0 4 11 35
25 69 13 35 22 68 19 72 -15 24 -34 0 -68 -83z"/>
<path d="M4485 3449 c-60 -23 -113 -44 -117 -48 -7 -7 46 -158 60 -173 4 -4
13 -3 21 1 12 8 10 19 -9 71 -13 35 -19 65 -14 69 5 5 50 23 99 41 102 37 108
40 99 63 -8 23 -13 22 -139 -24z"/>
<path d="M650 3198 c0 -23 9 -26 131 -57 72 -18 132 -31 133 -29 2 1 6 12 10
24 6 19 -3 23 -116 50 -170 40 -158 39 -158 12z"/>
<path d="M626 3009 c-46 -54 -29 -152 32 -182 38 -20 93 -28 131 -21 70 14
117 100 91 165 -14 34 -53 64 -70 54 -17 -10 -11 -39 10 -53 31 -19 27 -75 -7
-102 -23 -18 -36 -21 -73 -16 -90 12 -128 77 -76 127 14 13 26 32 26 42 0 28
-36 20 -64 -14z"/>
<path d="M4705 3034 c-11 -2 -67 -8 -124 -15 l-104 -12 7 -66 c12 -114 18
-141 33 -141 22 0 25 23 15 92 -5 35 -8 65 -7 66 2 2 21 6 43 9 l40 5 7 -58
c8 -77 11 -84 31 -84 15 0 16 9 11 75 l-7 75 34 0 c36 0 45 -15 46 -75 0 -53
10 -73 31 -68 12 4 18 12 15 22 -3 9 -8 50 -11 91 -9 97 -6 93 -60 84z"/>
<path d="M1795 2984 c-35 -8 -99 -26 -130 -36 -99 -33 -239 -124 -301 -197
-44 -53 -114 -153 -114 -164 0 -6 -12 -35 -27 -66 -34 -72 -44 -117 -50 -216
-6 -112 26 -207 129 -384 95 -160 180 -261 222 -261 8 0 16 -4 18 -8 6 -14
121 -65 186 -83 41 -11 107 -17 189 -18 116 -2 131 0 213 29 198 68 339 186
434 362 62 115 66 135 66 328 0 173 -9 233 -38 262 -7 7 -12 19 -12 28 0 8 -9
26 -20 40 -11 14 -20 29 -20 33 0 5 -8 19 -17 32 -10 12 -25 33 -33 45 -32 47
-155 160 -174 160 -4 0 -22 11 -40 25 -18 14 -38 25 -44 25 -6 0 -26 8 -44 18
-18 10 -51 24 -73 31 -40 12 -283 24 -320 15z m155 -169 c0 -8 4 -15 9 -15 11
0 34 -65 57 -155 23 -97 21 -245 -6 -365 -12 -52 -28 -106 -36 -118 -9 -13
-13 -26 -10 -29 3 -3 35 -16 71 -28 62 -22 79 -23 248 -20 100 2 196 5 212 7
27 3 30 0 33 -28 2 -20 -4 -36 -18 -49 -11 -10 -20 -24 -20 -30 0 -18 -77 -96
-130 -131 -56 -38 -142 -79 -197 -93 -24 -6 -60 -15 -82 -21 -56 -15 -248 -12
-334 4 -134 26 -248 85 -339 176 -53 54 -118 161 -118 195 0 21 42 19 88 -4
97 -48 324 -54 449 -10 35 13 63 26 63 31 0 4 -14 31 -32 60 -32 52 -32 53
-32 183 0 120 3 140 37 259 20 72 37 139 37 151 0 24 18 45 37 45 7 0 13 -7
13 -15z"/>
<path d="M3295 2970 c-16 -5 -50 -14 -75 -21 -69 -18 -192 -82 -255 -133 -22
-18 -48 -35 -57 -39 -10 -3 -18 -12 -18 -18 0 -6 -19 -34 -42 -62 -101 -119
-158 -272 -158 -427 0 -228 117 -450 307 -581 85 -59 130 -79 289 -129 60 -18
314 -9 374 14 25 10 57 21 71 24 14 4 65 31 115 60 99 59 141 106 235 266 134
229 150 337 82 556 -10 30 -26 69 -35 85 -10 17 -25 45 -33 63 -8 17 -20 32
-25 32 -6 0 -10 5 -10 11 0 13 -60 89 -71 89 -4 0 -22 15 -41 33 -74 70 -132
105 -248 147 -77 28 -98 32 -230 35 -80 3 -158 0 -175 -5z m233 -182 c4 -46
15 -48 39 -8 19 33 57 40 109 20 24 -10 26 -14 21 -50 -5 -36 -2 -41 24 -54
28 -14 31 -13 54 10 31 30 33 30 83 -6 45 -32 51 -53 26 -88 -26 -37 -11 -56
37 -48 35 6 44 3 70 -23 41 -42 40 -85 -2 -100 -29 -10 -31 -14 -25 -42 3 -17
6 -38 6 -45 0 -9 11 -13 33 -12 50 2 57 -7 57 -68 l0 -54 -45 0 c-38 0 -45 -3
-45 -19 0 -13 11 -23 35 -31 40 -13 43 -29 19 -89 -16 -42 -40 -59 -58 -41 -5
5 -19 10 -30 10 -19 -1 -18 -3 7 -21 35 -26 34 -42 -4 -90 -35 -44 -50 -47
-86 -19 l-25 19 -33 -26 c-31 -25 -34 -31 -28 -69 5 -39 4 -42 -27 -58 -48
-23 -81 -20 -105 10 -18 22 -25 24 -62 18 -40 -6 -42 -8 -45 -43 l-3 -36 -67
-3 -67 -3 -3 37 c-4 48 -22 54 -43 15 -13 -26 -22 -31 -50 -31 -19 0 -46 5
-60 12 -21 9 -25 18 -25 55 0 36 -4 45 -24 55 -20 8 -28 7 -41 -6 -25 -25 -70
-20 -107 12 -32 30 -32 38 -3 78 14 20 14 23 0 38 -12 11 -27 14 -59 10 -42
-6 -43 -5 -69 37 l-25 44 21 23 c11 12 29 22 39 22 15 0 17 5 12 28 -14 62
-14 62 -54 62 -44 0 -54 17 -48 81 3 31 6 34 42 39 49 6 58 26 16 35 -38 8
-45 24 -34 78 l9 42 48 1 c59 2 77 15 43 33 -33 18 -38 43 -15 80 28 46 55 56
93 36 30 -16 33 -16 69 5 42 25 41 24 26 52 -17 31 -3 65 32 77 52 18 78 14
91 -14 11 -24 15 -25 57 -19 59 8 61 10 61 43 0 15 3 31 7 35 4 4 34 6 68 4
l60 -3 3 -37z"/>
<path d="M3351 2456 c-64 -33 -74 -44 -101 -104 -27 -59 -25 -97 6 -157 37
-69 98 -107 182 -113 141 -10 242 79 242 213 0 52 -3 59 -42 102 -56 59 -90
76 -167 83 -58 5 -70 3 -120 -24z"/>
<path d="M4505 2711 c-10 -10 -4 -147 8 -171 28 -57 150 -80 214 -40 37 22 53
67 53 147 l0 51 -72 6 c-128 10 -198 12 -203 7z m233 -92 c2 -24 -3 -43 -17
-60 -17 -21 -28 -24 -79 -24 -78 1 -102 20 -102 82 l0 44 98 -3 97 -3 3 -36z"/>
<path d="M649 2683 c-80 -50 -77 -184 5 -228 44 -24 131 -17 174 14 65 46 65
151 1 205 -26 22 -40 26 -92 26 -40 0 -72 -6 -88 -17z m161 -53 c13 -13 20
-33 20 -60 0 -35 -5 -43 -32 -60 -74 -45 -168 -11 -168 60 0 51 38 80 105 80
42 0 60 -5 75 -20z"/>
<path d="M4480 2355 c-18 -19 -25 -40 -28 -83 -5 -74 9 -87 126 -119 108 -29
128 -29 135 -2 6 24 7 24 -106 48 -48 11 -94 25 -102 31 -22 18 -18 64 6 86
20 18 23 18 122 -3 56 -11 105 -19 110 -16 16 10 6 43 -15 48 -13 2 -54 11
-91 20 -98 22 -129 20 -157 -10z"/>
<path d="M784 2336 c-24 -20 -28 -32 -32 -89 -5 -81 -24 -104 -53 -68 -23 28
-24 59 -4 81 11 12 13 24 7 41 l-9 23 -28 -28 c-24 -24 -27 -33 -22 -73 7 -62
35 -97 79 -101 52 -4 78 32 78 108 0 63 15 86 48 75 11 -3 25 -19 32 -36 11
-27 10 -34 -9 -60 -21 -28 -22 -69 -1 -69 18 0 60 63 60 91 0 66 -47 129 -97
129 -12 0 -34 -11 -49 -24z"/>
<path d="M4433 2059 c-18 -3 -40 -12 -49 -19 -42 -36 -57 -117 -28 -158 31
-45 65 -14 38 35 -34 60 23 115 95 92 62 -20 91 -46 91 -83 0 -35 -25 -66 -52
-66 -15 0 -34 -47 -24 -58 3 -3 22 2 43 9 64 25 96 112 63 174 -27 51 -115 88
-177 74z"/>
<path d="M2654 1985 c-3 -13 -12 -29 -20 -36 -8 -6 -14 -18 -14 -26 0 -8 -14
-35 -32 -61 -114 -168 -260 -281 -433 -335 -99 -30 -277 -43 -380 -27 -38 6
-77 12 -85 12 -8 1 -28 10 -43 21 -58 40 -36 7 30 -46 492 -395 1175 -467
1740 -184 128 65 365 228 351 243 -2 1 -34 -8 -72 -21 -38 -13 -72 -23 -75
-23 -3 1 -35 -2 -71 -6 -102 -12 -291 9 -385 42 -80 28 -103 39 -198 100 -105
66 -220 204 -271 325 -22 53 -33 58 -42 22z"/>
<path d="M908 1887 c-65 -34 -118 -66 -118 -72 0 -35 18 -33 94 6 42 23 80 39
82 36 3 -2 -18 -42 -46 -88 -51 -85 -57 -103 -41 -128 7 -10 34 0 127 50 66
34 120 63 122 65 2 1 -1 11 -7 22 -10 19 -13 18 -86 -20 -42 -22 -78 -38 -81
-35 -2 2 18 43 46 90 55 93 56 96 38 119 -12 15 -25 10 -130 -45z"/>
<path d="M4266 1809 c-13 -20 -13 -24 6 -50 l21 -28 -32 -50 c-31 -48 -33 -49
-64 -40 -27 8 -35 6 -50 -13 -11 -12 -14 -24 -9 -26 6 -2 71 -16 146 -31 127
-26 137 -27 151 -11 8 9 15 21 15 27 0 5 -38 62 -84 127 -82 113 -85 116 -100
95z m89 -159 c15 -22 26 -42 24 -45 -4 -4 -89 14 -97 21 -6 4 31 64 39 64 3 0
19 -18 34 -40z"/>
<path d="M1157 1668 c-8 -13 -42 -70 -76 -127 -62 -105 -62 -105 -42 -125 20
-20 20 -20 98 3 206 62 203 61 190 82 -9 15 -18 18 -37 13 -43 -11 -46 -10
-83 34 -36 42 -36 44 -22 73 12 22 13 34 5 49 -14 25 -16 25 -33 -2z m22 -148
c16 -22 18 -32 9 -35 -66 -24 -98 -33 -98 -29 0 11 52 94 59 94 4 0 17 -14 30
-30z"/>
<path d="M4020 1485 c-6 -8 -10 -18 -8 -23 1 -4 37 -39 78 -76 41 -38 77 -73
79 -78 2 -5 -9 -22 -23 -37 -24 -25 -25 -29 -11 -41 14 -12 26 -3 90 66 63 68
71 81 59 94 -12 12 -18 10 -43 -14 l-30 -29 -38 31 c-21 17 -58 51 -83 76 -49
51 -52 52 -70 31z"/>
<path d="M1290 1335 c-90 -90 -94 -96 -77 -112 16 -17 22 -13 114 79 83 83 95
99 84 112 -8 9 -16 16 -20 16 -3 0 -49 -43 -101 -95z"/>
<path d="M3873 1343 c-24 -9 -13 -29 73 -126 74 -84 88 -95 105 -87 10 6 19
13 19 16 0 8 -173 204 -179 203 -3 0 -12 -3 -18 -6z"/>
<path d="M1454 1282 c-65 -41 -102 -124 -79 -178 10 -25 110 -114 128 -114 6
0 167 207 167 215 0 2 -25 23 -56 46 -68 50 -115 59 -160 31z m123 -56 l28
-24 -25 -34 c-14 -18 -38 -52 -55 -75 -16 -23 -33 -42 -37 -43 -4 0 -23 15
-42 33 -40 38 -41 56 -6 113 38 60 89 71 137 30z"/>
<path d="M3683 1204 c-39 -23 -73 -74 -73 -108 0 -28 30 -90 57 -118 50 -53
148 -46 197 13 66 79 2 220 -105 233 -26 3 -48 -3 -76 -20z m123 -60 c28 -29
34 -43 34 -78 0 -94 -97 -113 -154 -29 -34 49 -33 87 0 118 39 37 79 33 120
-11z"/>
<path d="M1714 1063 c-26 -49 -55 -103 -65 -120 -18 -32 -18 -33 2 -44 12 -6
22 -9 24 -7 1 2 19 36 39 76 20 39 41 72 46 72 6 0 10 -24 11 -52 2 -113 12
-160 37 -169 21 -8 26 0 83 113 47 94 58 123 47 129 -23 15 -27 11 -63 -61
-19 -38 -39 -70 -44 -70 -8 0 -21 94 -21 155 0 28 -24 65 -43 65 -3 0 -27 -39
-53 -87z"/>
<path d="M3466 1077 c-17 -13 -16 -17 13 -87 17 -40 30 -77 29 -81 -2 -4 -41
20 -87 53 -64 46 -89 58 -107 54 -13 -4 -24 -11 -24 -17 0 -15 103 -249 109
-249 3 0 12 4 20 9 12 8 8 23 -19 90 -18 45 -31 84 -29 86 3 2 40 -23 84 -55
78 -58 121 -73 131 -47 4 10 -87 241 -100 254 -1 2 -10 -3 -20 -10z"/>
<path d="M2040 1018 c0 -2 -20 -60 -45 -128 -45 -123 -46 -139 -9 -140 9 0
108 250 101 256 -5 4 -47 15 -47 12z"/>
</g>
</svg>
